<?xml version="1.0" encoding="utf-8"?>
<!-- Generator: Adobe Illustrator 14.0.0, SVG Export Plug-In . SVG Version: 6.00 Build 43363)  -->
<!DOCTYPE svg PUBLIC "-//W3C//DTD SVG 1.1//EN" "http://www.w3.org/Graphics/SVG/1.1/DTD/svg11.dtd">
<svg version="1.1" xmlns="http://www.w3.org/2000/svg" xmlns:xlink="http://www.w3.org/1999/xlink" x="0px" y="0px"
	 width="493.088px" height="184.25px" viewBox="0 0 493.088 184.25" enable-background="new 0 0 493.088 184.25"
	 xml:space="preserve">
<g id="Ebene_2">
</g>
<g id="Logo">
	<path fill="#004F8B" d="M466.384,57.686c-21.056-13.713-60.234-9.045-84.531,1.353c2.838,6.761,4.1,11.012,8.117,14.877
		c9.371,9.016,26.867,3.72,43.278,6.087c12.361,1.782,18.453,8.873,18.938,24.346c-27.771-10.375-68.799-3.532-77.774,16.23
		c-2.219-26.638,2.961-60.908,0-85.887c-2.201-18.611-15.872-27.367-35.162-29.079c-0.45,20.513,0.896,42.83-0.678,62.216
		c-9.074-11.388-21.567-19.895-39.223-19.612c-28.101,0.453-45.168,19.42-52.75,39.9c-3.662-22.523-20.581-36.727-45.986-38.547
		c-21.302-1.526-41.194,2.604-56.807,9.469c3.213,8.419,4.681,14.119,12.173,18.259c14.495,8.01,42.007-2.361,52.749,9.467
		c3.239,3.566,5.611,8.756,4.058,17.583c-23.387-9.411-62.576-4.463-73.037,10.82c0.279-37.886-21.768-68.221-58.836-66.953
		C63.225,48.822,52.6,58.624,43.718,67.153c0-20.514,0-41.027,0-61.54C25.345,6.445,10.572,16.839,8.55,34.015
		c-2.286,19.421,0,45.709,0,71.01c0,25.735,0,51.398,0,71.005c17.122-0.235,29.073-5.641,35.842-16.229
		c7.569,9.535,17.457,16.791,31.786,18.262c27.955,2.861,47.66-13.704,56.806-31.111c2.756,36.379,64.356,38.801,80.476,16.232
		c3.007,12.77,19.547,12.011,34.491,12.847c0.45-10.819-0.9-23.44,0.675-33.136c6.2,27.275,50.943,46.939,79.127,27.727
		c4.216-2.875,6.83-7.447,11.496-10.818c5.637,11.49,18.65,15.607,35.162,16.229c0-6.31,0-12.621,0-18.934
		c8.98,26.039,62.113,26.729,77.774,6.087c2.511,13.04,19.334,11.771,33.813,12.847C484.222,128.445,494.635,76.081,466.384,57.686z
		 M74.148,148.305c-38.787,0.491-41.08-63.122-5.41-68.979C112.499,72.141,117.063,147.76,74.148,148.305z M166.797,140.189
		c-2.195-21.62,31.172-22.798,47.339-14.878C222.49,155.677,169.203,163.875,166.797,140.189z M309.491,148.305
		c-37.611,0.479-41.408-63.222-6.764-68.979c0.439-0.073,0.914,0.072,1.354,0C349.469,71.771,349.259,147.8,309.491,148.305z
		 M448.802,144.25c-8.389,10.898-34.277,13.389-41.255,2.701c-4.012-6.146-2.36-15.373,1.354-19.609
		c8.354-9.526,33.036-7.094,43.956-2.029C453.044,133.073,452.104,139.957,448.802,144.25z"/>
</g>
</svg>
